<svg width="18" height="22" viewBox="0 0 18 22" fill="none" xmlns="http://www.w3.org/2000/svg">
<path d="M15.9512 7.66666L14.5845 20.0111C14.5543 20.2841 14.424 20.5362 14.2188 20.7189C14.0136 20.9015 13.7481 21.0016 13.4734 21H4.09563C3.82095 21.0016 3.55539 20.9015 3.35019 20.7189C3.145 20.5362 3.01473 20.2841 2.98452 20.0111L1.61786 7.66666H15.9512Z" fill="white"/>
<path d="M1.61786 7.66667H15.9512M2.11785 1.00002C1.96106 0.999069 1.80584 1.03131 1.6624 1.09463C1.51896 1.15795 1.39055 1.25091 1.2856 1.36741C1.18065 1.4839 1.10155 1.62128 1.05348 1.77053C1.00542 1.91978 0.989495 2.07751 1.00675 2.23335L2.97341 20.0111C3.00362 20.2841 3.13389 20.5363 3.33908 20.7189C3.54427 20.9015 3.80983 21.0016 4.08452 21H13.4623C13.737 21.0016 14.0025 20.9015 14.2077 20.7189C14.4129 20.5363 14.5432 20.2841 14.5734 20.0111L16.5623 2.23335C16.5795 2.07751 16.5636 1.91978 16.5155 1.77053C16.4675 1.62128 16.3884 1.4839 16.2834 1.36741C16.1785 1.25091 16.05 1.15795 15.9066 1.09463C15.7632 1.03131 15.6079 0.999069 15.4512 1.00002H2.11785Z" stroke="white" stroke-width="2" stroke-linecap="round" stroke-linejoin="round"/>
</svg>
