<svg width="20" height="20" viewBox="0 0 20 20" fill="none" xmlns="http://www.w3.org/2000/svg">
<path d="M18.1818 7.27273H7.27273V1.81818C7.27273 1.33597 7.08117 0.873508 6.74019 0.532533C6.39922 0.191558 5.93676 0 5.45455 0H1.81818C1.33597 0 0.873508 0.191558 0.532533 0.532533C0.191558 0.873508 0 1.33597 0 1.81818V7.27273C0.00144351 8.47781 0.480802 9.63313 1.33293 10.4853C2.18505 11.3374 3.34037 11.8167 4.54545 11.8182H5.52091C5.67617 12.8543 6.08269 13.8367 6.70498 14.6796C7.32727 15.5224 8.14642 16.2002 9.09091 16.6536L8.25 18.7536C8.195 18.8913 8.1745 19.0403 8.19029 19.1878C8.20608 19.3352 8.25769 19.4765 8.3406 19.5994C8.42352 19.7223 8.53523 19.823 8.66601 19.8928C8.79679 19.9627 8.94266 19.9995 9.09091 20H16.3636C16.5122 20.0001 16.6585 19.9637 16.7898 19.8941C16.921 19.8245 17.0332 19.7239 17.1166 19.6009C17.1999 19.4779 17.2518 19.3364 17.2678 19.1887C17.2838 19.041 17.2633 18.8916 17.2082 18.7536L16.3636 16.6536C17.4479 16.134 18.3639 15.3196 19.007 14.3037C19.6501 13.2878 19.9942 12.1114 20 10.9091V9.09091C20 8.6087 19.8084 8.14624 19.4675 7.80526C19.1265 7.46429 18.664 7.27273 18.1818 7.27273ZM18.1818 9.09091V10H7.27273V9.09091H18.1818ZM1.81818 7.27273V1.81818H5.45455V10H4.54545C3.82214 10 3.12844 9.71266 2.61698 9.2012C2.10552 8.68974 1.81818 7.99605 1.81818 7.27273ZM14.9245 15.2664C14.8033 15.3022 14.6908 15.363 14.5944 15.4448C14.4979 15.5266 14.4196 15.6276 14.3644 15.7414C14.3092 15.8552 14.2784 15.9793 14.2739 16.1057C14.2693 16.2321 14.2913 16.358 14.3382 16.4755L15.0209 18.1818H10.4336L11.1164 16.4755C11.1633 16.358 11.1852 16.2321 11.1807 16.1057C11.1762 15.9793 11.1453 15.8552 11.0902 15.7414C11.035 15.6276 10.9566 15.5266 10.8602 15.4448C10.7637 15.363 10.6513 15.3022 10.53 15.2664C9.74068 15.0299 9.02985 14.5847 8.47253 13.9778C7.91522 13.3709 7.53211 12.6248 7.36364 11.8182H18.0909C17.9224 12.6248 17.5393 13.3709 16.982 13.9778C16.4247 14.5847 15.7139 15.0299 14.9245 15.2664Z" fill="#2CBBE9"/>
</svg>
