<svg xmlns="http://www.w3.org/2000/svg" version="1.1" xmlns:xlink="http://www.w3.org/1999/xlink" xmlns:svgjs="http://svgjs.com/svgjs" width="1000" height="1000"><rect width="1000" height="1000" rx="250" ry="250" fill="#eaecec"></rect><g transform="matrix(5.405405405405405,0,0,5.405405405405405,205.7877851950156,3.1993272884471935)"><svg xmlns="http://www.w3.org/2000/svg" version="1.1" xmlns:xlink="http://www.w3.org/1999/xlink" xmlns:svgjs="http://svgjs.com/svgjs" width="108" height="148"><svg width="108" height="148" viewBox="0 0 108 148" fill="none" xmlns="http://www.w3.org/2000/svg">
<g filter="url(#filter0_d_4_131)">
<path d="M54 143.114C40.7765 143.114 28.0945 137.879 18.7441 128.562C9.39365 119.244 4.14063 106.607 4.14062 93.4303C4.14062 63.6933 44.329 15.2678 52.544 5.6797C53.3251 4.768 54.6749 4.768 55.456 5.6797C63.671 15.2678 103.859 63.6933 103.859 93.4303C103.859 106.607 98.6063 119.244 89.2559 128.562C79.9054 137.879 67.2235 143.114 54 143.114Z" fill="white"></path>
<mask id="mask0_4_131" style="mask-type:alpha" maskUnits="userSpaceOnUse" x="4" y="4" width="100" height="140">
<path d="M54 143.114C40.7765 143.114 28.0945 137.879 18.7441 128.562C9.39365 119.244 4.14063 106.607 4.14062 93.4303C4.14062 63.6933 44.329 15.2678 52.544 5.6797C53.3251 4.768 54.6749 4.768 55.456 5.6797C63.671 15.2678 103.859 63.6933 103.859 93.4303C103.859 106.607 98.6063 119.244 89.2559 128.562C79.9054 137.879 67.2235 143.114 54 143.114Z" fill="black"></path>
</mask>
<g mask="url(#mask0_4_131)">
<ellipse cx="56.118" cy="85.6408" rx="57.2852" ry="27.0514" fill="#8CDAF3"></ellipse>
<ellipse cx="53.9963" cy="108.979" rx="57.2852" ry="27.0514" fill="#75D3F0"></ellipse>
<ellipse cx="52.9354" cy="134.439" rx="57.2852" ry="27.0514" fill="#5ECBEE"></ellipse>
<ellipse cx="56.118" cy="159.899" rx="57.2852" ry="27.0514" fill="#46C4EC"></ellipse>
<g style="mix-blend-mode:multiply">
<path d="M36.7924 131.476C36.3682 131.476 35.9903 131.403 35.6589 131.258C35.3294 131.11 35.0689 130.907 34.8777 130.65C34.6883 130.39 34.5907 130.091 34.585 129.752H35.8237C35.8313 129.894 35.8777 130.019 35.9629 130.127C36.05 130.233 36.1655 130.315 36.3095 130.374C36.4534 130.433 36.6153 130.462 36.7953 130.462C36.9828 130.462 37.1485 130.429 37.2924 130.363C37.4364 130.296 37.5491 130.204 37.6305 130.087C37.7119 129.97 37.7527 129.834 37.7527 129.681C37.7527 129.526 37.7091 129.388 37.622 129.269C37.5367 129.148 37.4136 129.053 37.2527 128.985C37.0936 128.917 36.9042 128.883 36.6845 128.883H36.1419V127.979H36.6845C36.8701 127.979 37.0339 127.947 37.1759 127.883C37.3199 127.818 37.4316 127.729 37.5112 127.615C37.5907 127.5 37.6305 127.365 37.6305 127.212C37.6305 127.066 37.5955 126.938 37.5254 126.829C37.4572 126.717 37.3606 126.63 37.2356 126.567C37.1125 126.505 36.9686 126.473 36.8038 126.473C36.6371 126.473 36.4847 126.504 36.3464 126.564C36.2081 126.623 36.0973 126.707 36.014 126.817C35.9307 126.927 35.8862 127.056 35.8805 127.204H34.7015C34.7072 126.868 34.8028 126.573 34.9884 126.317C35.1741 126.062 35.4241 125.862 35.7384 125.718C36.0547 125.572 36.4117 125.499 36.8095 125.499C37.211 125.499 37.5623 125.572 37.8634 125.718C38.1646 125.864 38.3985 126.061 38.5652 126.309C38.7337 126.555 38.817 126.831 38.8152 127.138C38.817 127.464 38.7157 127.736 38.5112 127.954C38.3085 128.171 38.0443 128.31 37.7186 128.368V128.414C38.1466 128.469 38.4723 128.617 38.6958 128.86C38.9212 129.1 39.033 129.401 39.0311 129.763C39.033 130.095 38.9373 130.389 38.7441 130.647C38.5528 130.904 38.2886 131.107 37.9515 131.255C37.6144 131.402 37.228 131.476 36.7924 131.476ZM42.1965 131.525C41.7079 131.523 41.2875 131.402 40.9352 131.164C40.5848 130.925 40.3149 130.579 40.1255 130.127C39.938 129.674 39.8452 129.13 39.8471 128.493C39.8471 127.859 39.9409 127.318 40.1284 126.871C40.3178 126.424 40.5876 126.084 40.938 125.851C41.2903 125.616 41.7098 125.499 42.1965 125.499C42.6833 125.499 43.1018 125.616 43.4522 125.851C43.8045 126.086 44.0753 126.427 44.2647 126.874C44.4541 127.319 44.5479 127.859 44.546 128.493C44.546 129.132 44.4513 129.677 44.2619 130.13C44.0744 130.582 43.8054 130.928 43.4551 131.167C43.1047 131.405 42.6852 131.525 42.1965 131.525ZM42.1965 130.505C42.5299 130.505 42.796 130.337 42.9948 130.002C43.1937 129.667 43.2922 129.164 43.2903 128.493C43.2903 128.052 43.2448 127.685 43.1539 127.391C43.0649 127.097 42.938 126.877 42.7732 126.729C42.6104 126.581 42.4181 126.508 42.1965 126.508C41.8651 126.508 41.6 126.673 41.4011 127.005C41.2022 127.336 41.1018 127.832 41.1 128.493C41.1 128.94 41.1445 129.313 41.2335 129.613C41.3244 129.91 41.4522 130.133 41.617 130.283C41.7818 130.431 41.975 130.505 42.1965 130.505ZM47.9686 125.306L46.0936 132.272H45.0509L46.9259 125.306H47.9686ZM50.6653 131.476C50.2638 131.476 49.9058 131.402 49.5914 131.255C49.2789 131.107 49.0308 130.903 48.8471 130.644C48.6634 130.384 48.5678 130.087 48.5602 129.752H49.7534C49.7666 129.977 49.8613 130.16 50.0375 130.3C50.2136 130.44 50.4229 130.51 50.6653 130.51C50.8585 130.51 51.0289 130.468 51.1767 130.383C51.3263 130.295 51.4428 130.175 51.5261 130.022C51.6113 129.866 51.6539 129.688 51.6539 129.488C51.6539 129.283 51.6104 129.103 51.5232 128.948C51.438 128.793 51.3196 128.671 51.1681 128.584C51.0166 128.497 50.8433 128.453 50.6482 128.451C50.4778 128.451 50.3121 128.486 50.1511 128.556C49.992 128.626 49.8679 128.722 49.7789 128.843L48.6852 128.647L48.9607 125.579H52.5176V126.584H49.975L49.8244 128.042H49.8585C49.9607 127.898 50.1151 127.778 50.3215 127.684C50.528 127.589 50.759 127.542 51.0147 127.542C51.3651 127.542 51.6776 127.624 51.9522 127.789C52.2268 127.954 52.4437 128.18 52.6028 128.468C52.7619 128.754 52.8405 129.083 52.8386 129.456C52.8405 129.848 52.7496 130.197 52.5659 130.502C52.384 130.805 52.1293 131.044 51.8017 131.218C51.4759 131.39 51.0971 131.476 50.6653 131.476ZM55.9778 131.525C55.4892 131.523 55.0687 131.402 54.7164 131.164C54.3661 130.925 54.0962 130.579 53.9068 130.127C53.7193 129.674 53.6265 129.13 53.6284 128.493C53.6284 127.859 53.7221 127.318 53.9096 126.871C54.099 126.424 54.3689 126.084 54.7193 125.851C55.0715 125.616 55.4911 125.499 55.9778 125.499C56.4645 125.499 56.8831 125.616 57.2335 125.851C57.5857 126.086 57.8566 126.427 58.046 126.874C58.2354 127.319 58.3291 127.859 58.3272 128.493C58.3272 129.132 58.2325 129.677 58.0431 130.13C57.8556 130.582 57.5867 130.928 57.2363 131.167C56.8859 131.405 56.4664 131.525 55.9778 131.525ZM55.9778 130.505C56.3111 130.505 56.5772 130.337 56.7761 130.002C56.975 129.667 57.0734 129.164 57.0715 128.493C57.0715 128.052 57.0261 127.685 56.9352 127.391C56.8462 127.097 56.7193 126.877 56.5545 126.729C56.3916 126.581 56.1994 126.508 55.9778 126.508C55.6464 126.508 55.3812 126.673 55.1823 127.005C54.9835 127.336 54.8831 127.832 54.8812 128.493C54.8812 128.94 54.9257 129.313 55.0147 129.613C55.1056 129.91 55.2335 130.133 55.3982 130.283C55.563 130.431 55.7562 130.505 55.9778 130.505ZM63.0332 133.124C62.6411 133.124 62.305 133.07 62.0247 132.962C61.7463 132.856 61.5247 132.711 61.3599 132.527C61.1951 132.344 61.0881 132.137 61.0389 131.908L62.1582 131.758C62.1923 131.845 62.2463 131.926 62.3201 132.002C62.394 132.078 62.4915 132.138 62.6127 132.184C62.7358 132.231 62.8855 132.255 63.0616 132.255C63.3249 132.255 63.5417 132.19 63.7122 132.062C63.8845 131.935 63.9707 131.722 63.9707 131.422V130.624H63.9196C63.8665 130.745 63.787 130.86 63.6809 130.968C63.5749 131.076 63.4385 131.164 63.2718 131.232C63.1052 131.3 62.9063 131.334 62.6752 131.334C62.3476 131.334 62.0493 131.258 61.7804 131.107C61.5133 130.954 61.3002 130.72 61.1411 130.405C60.9839 130.089 60.9054 129.689 60.9054 129.206C60.9054 128.712 60.9858 128.299 61.1468 127.968C61.3078 127.636 61.5218 127.388 61.7889 127.223C62.0578 127.059 62.3523 126.976 62.6724 126.976C62.9167 126.976 63.1213 127.018 63.286 127.101C63.4508 127.183 63.5834 127.285 63.6838 127.408C63.786 127.529 63.8646 127.649 63.9196 127.766H63.965V127.033H65.1667V131.439C65.1667 131.811 65.0758 132.121 64.894 132.371C64.7122 132.621 64.4603 132.809 64.1383 132.934C63.8182 133.061 63.4499 133.124 63.0332 133.124ZM63.0588 130.425C63.2538 130.425 63.4186 130.377 63.5531 130.28C63.6894 130.182 63.7936 130.042 63.8656 129.86C63.9394 129.676 63.9764 129.456 63.9764 129.201C63.9764 128.945 63.9404 128.723 63.8684 128.536C63.7964 128.347 63.6923 128.2 63.5559 128.096C63.4196 127.991 63.2538 127.939 63.0588 127.939C62.8599 127.939 62.6923 127.993 62.5559 128.101C62.4196 128.207 62.3163 128.355 62.2463 128.544C62.1762 128.734 62.1411 128.953 62.1411 129.201C62.1411 129.453 62.1762 129.67 62.2463 129.854C62.3182 130.036 62.4214 130.177 62.5559 130.277C62.6923 130.376 62.8599 130.425 63.0588 130.425ZM67.3741 131.479C67.0957 131.479 66.8476 131.431 66.6298 131.334C66.412 131.236 66.2396 131.091 66.1127 130.9C65.9877 130.706 65.9252 130.466 65.9252 130.178C65.9252 129.936 65.9697 129.732 66.0588 129.567C66.1478 129.402 66.269 129.27 66.4224 129.169C66.5758 129.069 66.75 128.993 66.9451 128.942C67.1421 128.891 67.3485 128.855 67.5644 128.834C67.8182 128.808 68.0228 128.783 68.1781 128.76C68.3334 128.736 68.4461 128.7 68.5161 128.652C68.5862 128.605 68.6213 128.535 68.6213 128.442V128.425C68.6213 128.245 68.5644 128.106 68.4508 128.008C68.3391 127.909 68.18 127.86 67.9735 127.86C67.7557 127.86 67.5824 127.908 67.4536 128.005C67.3249 128.099 67.2396 128.219 67.198 128.363L66.0786 128.272C66.1355 128.007 66.2472 127.777 66.4139 127.584C66.5805 127.389 66.7955 127.24 67.0588 127.135C67.3239 127.029 67.6307 126.976 67.9792 126.976C68.2216 126.976 68.4536 127.005 68.6752 127.062C68.8987 127.118 69.0966 127.206 69.269 127.326C69.4432 127.445 69.5805 127.598 69.6809 127.786C69.7813 127.972 69.8315 128.194 69.8315 128.454V131.397H68.6838V130.792H68.6497C68.5796 130.928 68.4858 131.048 68.3684 131.152C68.251 131.255 68.1099 131.335 67.9451 131.394C67.7804 131.451 67.59 131.479 67.3741 131.479ZM67.7207 130.644C67.8987 130.644 68.0559 130.609 68.1923 130.539C68.3286 130.467 68.4357 130.37 68.5133 130.249C68.591 130.128 68.6298 129.99 68.6298 129.837V129.374C68.5919 129.399 68.5398 129.421 68.4735 129.442C68.4091 129.461 68.3362 129.479 68.2548 129.496C68.1733 129.511 68.0919 129.526 68.0105 129.539C67.929 129.55 67.8552 129.561 67.7889 129.57C67.6468 129.591 67.5228 129.624 67.4167 129.669C67.3107 129.715 67.2283 129.776 67.1696 129.854C67.1108 129.93 67.0815 130.025 67.0815 130.138C67.0815 130.303 67.1411 130.429 67.2605 130.516C67.3817 130.601 67.5351 130.644 67.7207 130.644ZM71.9806 125.579V131.397H70.7704V125.579H71.9806ZM73.6575 131.471C73.47 131.471 73.309 131.404 73.1745 131.272C73.042 131.137 72.9757 130.976 72.9757 130.789C72.9757 130.603 73.042 130.444 73.1745 130.312C73.309 130.179 73.47 130.113 73.6575 130.113C73.8393 130.113 73.9984 130.179 74.1348 130.312C74.2711 130.444 74.3393 130.603 74.3393 130.789C74.3393 130.914 74.3071 131.028 74.2427 131.133C74.1802 131.235 74.0978 131.317 73.9955 131.38C73.8933 131.44 73.7806 131.471 73.6575 131.471Z" fill="#2CBBE9"></path>
</g>
</g>
</g>
<defs>
<filter id="filter0_d_4_131" x="0.140625" y="0.995926" width="107.719" height="146.118" filterUnits="userSpaceOnUse" color-interpolation-filters="sRGB">
<feFlood flood-opacity="0" result="BackgroundImageFix"></feFlood>
<feColorMatrix in="SourceAlpha" type="matrix" values="0 0 0 0 0 0 0 0 0 0 0 0 0 0 0 0 0 0 127 0" result="hardAlpha"></feColorMatrix>
<feOffset></feOffset>
<feGaussianBlur stdDeviation="2"></feGaussianBlur>
<feComposite in2="hardAlpha" operator="out"></feComposite>
<feColorMatrix type="matrix" values="0 0 0 0 0 0 0 0 0 0 0 0 0 0 0 0 0 0 0.1 0"></feColorMatrix>
<feBlend mode="normal" in2="BackgroundImageFix" result="effect1_dropShadow_4_131"></feBlend>
<feBlend mode="normal" in="SourceGraphic" in2="effect1_dropShadow_4_131" result="shape"></feBlend>
</filter>
</defs>
</svg></svg></g></svg>