<svg width="15" height="15" viewBox="0 0 15 15" fill="none" xmlns="http://www.w3.org/2000/svg">
<path fill-rule="evenodd" clip-rule="evenodd" d="M12.7301 6.63766C12.9385 6.84603 13.0556 7.12865 13.0556 7.42333C13.0556 7.71802 12.9385 8.00063 12.7301 8.20901C12.5218 8.41738 12.2391 8.53445 11.9445 8.53445H8.68779V11.9444C8.68779 12.2391 8.57073 12.5217 8.36236 12.7301C8.15398 12.9385 7.87137 13.0556 7.57668 13.0556C7.282 13.0556 6.99938 12.9385 6.79101 12.7301C6.58263 12.5217 6.46557 12.2391 6.46557 11.9444V8.53445H3.05557C2.76088 8.53445 2.47827 8.41738 2.2699 8.20901C2.06152 8.00063 1.94446 7.71802 1.94446 7.42333C1.94446 7.12865 2.06152 6.84603 2.2699 6.63766C2.47827 6.42929 2.76088 6.31222 3.05557 6.31222H6.46557V3.05556C6.46557 2.76087 6.58263 2.47826 6.79101 2.26988C6.99938 2.06151 7.282 1.94445 7.57668 1.94445C7.87137 1.94445 8.15398 2.06151 8.36236 2.26988C8.57073 2.47826 8.68779 2.76087 8.68779 3.05556V6.31222H11.9445C12.2391 6.31222 12.5218 6.42929 12.7301 6.63766Z" fill="white"/>
</svg>
