<svg width="20" height="20" viewBox="0 0 20 20" fill="none" xmlns="http://www.w3.org/2000/svg">
<path fill-rule="evenodd" clip-rule="evenodd" d="M10 17.7778C8.97861 17.7778 7.96722 17.5766 7.02357 17.1857C6.07993 16.7949 5.22251 16.222 4.50028 15.4997C3.77805 14.7775 3.20514 13.9201 2.81427 12.9764C2.4234 12.0328 2.22222 11.0214 2.22222 10C2.22222 8.97861 2.4234 7.96722 2.81427 7.02357C3.20514 6.07993 3.77805 5.22251 4.50028 4.50028C5.22251 3.77805 6.07993 3.20514 7.02357 2.81427C7.96722 2.4234 8.97861 2.22222 10 2.22222C12.0628 2.22222 14.0411 3.04166 15.4997 4.50028C16.9583 5.9589 17.7778 7.93721 17.7778 10C17.7778 12.0628 16.9583 14.0411 15.4997 15.4997C14.0411 16.9583 12.0628 17.7778 10 17.7778ZM0 10C0 12.6522 1.05357 15.1957 2.92893 17.0711C4.8043 18.9464 7.34784 20 10 20C12.6522 20 15.1957 18.9464 17.0711 17.0711C18.9464 15.1957 20 12.6522 20 10C20 7.34784 18.9464 4.8043 17.0711 2.92893C15.1957 1.05357 12.6522 0 10 0C7.34784 0 4.8043 1.05357 2.92893 2.92893C1.05357 4.8043 0 7.34784 0 10ZM15.5556 9.92333C15.5556 9.62865 15.4385 9.34603 15.2301 9.13766C15.0217 8.92928 14.7391 8.81222 14.4444 8.81222H11.1878V5.55556C11.1878 5.26087 11.0707 4.97826 10.8623 4.76988C10.654 4.56151 10.3714 4.44444 10.0767 4.44444C9.78198 4.44444 9.49937 4.56151 9.29099 4.76988C9.08262 4.97826 8.96556 5.26087 8.96556 5.55556V8.81222H5.55556C5.26087 8.81222 4.97826 8.92928 4.76988 9.13766C4.56151 9.34603 4.44444 9.62865 4.44444 9.92333C4.44444 10.218 4.56151 10.5006 4.76988 10.709C4.97826 10.9174 5.26087 11.0344 5.55556 11.0344H8.96556V14.4444C8.96556 14.7391 9.08262 15.0217 9.29099 15.2301C9.49937 15.4385 9.78198 15.5556 10.0767 15.5556C10.3714 15.5556 10.654 15.4385 10.8623 15.2301C11.0707 15.0217 11.1878 14.7391 11.1878 14.4444V11.0344H14.4444C14.7391 11.0344 15.0217 10.9174 15.2301 10.709C15.4385 10.5006 15.5556 10.218 15.5556 9.92333Z" fill="white"/>
</svg>
